<svg id="Layer_1" data-name="Layer 1" xmlns="http://www.w3.org/2000/svg" viewBox="0 0 159.29 223.2"><defs><style>.cls-1{fill:#7f3cbf;}</style></defs><path class="cls-1" d="M207.46,128.31v56.27a55.34,55.34,0,0,1-55.32,55.33h-104a55.33,55.33,0,0,1,55.32-55.33h1l23.37,22.9,23.36-22.9V72a56.84,56.84,0,0,1,7.87.56,56.2,56.2,0,0,1,48.41,55.72Z" transform="translate(-48.17 -16.71)"/><path class="cls-1" d="M207.46,16.71h0A55.32,55.32,0,0,1,152.14,72H104.45V184.58a56.84,56.84,0,0,1-7.87-.55,56.22,56.22,0,0,1-48.41-55.72V72a55.34,55.34,0,0,1,55.32-55.32Z" transform="translate(-48.17 -16.71)"/><rect class="cls-1" x="56.28" y="71.9" width="46.74" height="4.42"/><rect class="cls-1" x="56.28" y="163.46" width="46.74" height="4.42"/></svg>